<svg width="71" height="115" viewBox="0 0 71 115" fill="none" xmlns="http://www.w3.org/2000/svg">
<path d="M31 115C17.469 115 6.5 102.464 6.5 87C6.5 71.536 17.469 59 31 59C44.531 59 55.5 71.536 55.5 87C55.5 102.464 44.531 115 31 115Z" fill="#FCC62D"/>
<path d="M6.5 87C6.5 72.698 15.885 60.908 28 59.217C27.016 59.079 26.016 59 25 59C11.469 59 0.5 71.536 0.5 87C0.5 102.464 11.469 115 25 115C26.016 115 27.016 114.921 28 114.784C15.885 113.092 6.5 101.302 6.5 87Z" fill="#E4AF18"/>
<path d="M6.49898 88.001H0.500977C0.520977 88.674 0.558977 89.341 0.619977 90.001H6.62298C6.56098 89.342 6.51898 88.675 6.49898 88.001Z" fill="#CE9912"/>
<path d="M6.7269 83.001H0.730898C0.647898 83.66 0.588898 84.328 0.545898 85.001H6.5449C6.5879 84.329 6.6459 83.661 6.7269 83.001Z" fill="#CE9912"/>
<path d="M7.04885 93.001H1.04785C1.17785 93.677 1.32785 94.344 1.49885 95.001H7.49785C7.32685 94.345 7.17785 93.678 7.04885 93.001Z" fill="#CE9912"/>
<path d="M8.44785 98.001H2.44385C2.69885 98.683 2.97985 99.348 3.28085 100.001H9.28285C8.98185 99.35 8.70285 98.683 8.44785 98.001Z" fill="#CE9912"/>
<path d="M7.773 78.001H1.778C1.584 78.658 1.402 79.323 1.25 80.001H7.257C7.408 79.326 7.578 78.657 7.773 78.001Z" fill="#CE9912"/>
<path d="M9.76387 73.002H3.76287C3.43387 73.653 3.12287 74.319 2.83887 75.002H8.84287C9.12687 74.319 9.43387 73.652 9.76387 73.002Z" fill="#CE9912"/>
<path d="M13.8448 67.002H7.83782C7.26882 67.638 6.72782 68.305 6.21582 69.002H12.2208C12.7328 68.305 13.2748 67.638 13.8448 67.002Z" fill="#CE9912"/>
<path d="M19.9588 62.001H13.9448C12.9238 62.591 11.9428 63.259 11.0088 64.001H17.0178C17.9528 63.26 18.9348 62.592 19.9588 62.001Z" fill="#CE9912"/>
<path d="M11.5191 104.001H5.51709C5.98109 104.694 6.47109 105.361 6.99009 106.001H12.9971C12.4771 105.361 11.9851 104.694 11.5191 104.001Z" fill="#CE9912"/>
<path d="M9.83398 109.001C10.637 109.724 11.479 110.396 12.358 111.001H18.373C17.488 110.394 16.639 109.727 15.831 109.001H9.83398Z" fill="#CE9912"/>
<path d="M31.085 109.524H31C30.3 109.524 29.595 109.482 28.905 109.4C28.357 109.334 27.964 108.837 28.031 108.288C28.095 107.74 28.578 107.358 29.142 107.414C29.752 107.487 30.378 107.524 30.999 107.524C31.552 107.524 32.041 107.972 32.041 108.524C32.042 109.076 31.638 109.524 31.085 109.524ZM36.901 108.447C36.497 108.447 36.116 108.2 35.964 107.799C35.769 107.283 36.031 106.706 36.547 106.511C37.125 106.293 37.7 106.038 38.253 105.754C38.746 105.5 39.347 105.695 39.601 106.186C39.853 106.677 39.66 107.28 39.167 107.532C38.546 107.852 37.902 108.137 37.252 108.382C37.137 108.426 37.018 108.447 36.901 108.447ZM23.366 107.683C23.213 107.683 23.058 107.648 22.914 107.574C22.296 107.261 21.687 106.908 21.105 106.526C20.642 106.224 20.513 105.604 20.816 105.142C21.12 104.681 21.738 104.551 22.201 104.854C22.722 105.195 23.266 105.511 23.819 105.791C24.312 106.041 24.507 106.643 24.257 107.135C24.082 107.483 23.731 107.683 23.366 107.683ZM43.477 104.125C43.222 104.125 42.968 104.029 42.774 103.837C42.381 103.448 42.377 102.815 42.765 102.422C43.202 101.982 43.623 101.509 44.024 101.019C44.372 100.591 45.001 100.526 45.429 100.874C45.859 101.223 45.922 101.853 45.575 102.281C45.135 102.821 44.668 103.342 44.188 103.828C43.992 104.026 43.734 104.125 43.477 104.125ZM17.257 102.718C16.967 102.718 16.681 102.593 16.484 102.352C16.052 101.827 15.636 101.267 15.246 100.688C14.936 100.231 15.056 99.6091 15.513 99.2991C15.972 98.9911 16.592 99.1111 16.903 99.5691C17.259 100.096 17.639 100.607 18.032 101.085C18.381 101.512 18.32 102.142 17.891 102.492C17.705 102.644 17.48 102.718 17.257 102.718ZM47.87 97.5791C47.737 97.5791 47.602 97.5521 47.471 97.4961C46.965 97.2751 46.734 96.6861 46.954 96.1791C47.205 95.6031 47.433 95.0071 47.636 94.4101C47.813 93.8871 48.38 93.6061 48.904 93.7811C49.426 93.9581 49.708 94.5251 49.532 95.0481C49.311 95.7001 49.061 96.3491 48.789 96.9781C48.623 97.3541 48.256 97.5791 47.87 97.5791ZM13.445 95.8131C13.029 95.8131 12.639 95.5511 12.498 95.1351C12.277 94.4871 12.08 93.8191 11.913 93.1531C11.781 92.6171 12.107 92.0751 12.642 91.9421C13.177 91.8061 13.72 92.1341 13.855 92.6701C14.006 93.2811 14.187 93.8941 14.39 94.4901C14.57 95.0111 14.289 95.5811 13.767 95.7591C13.661 95.7951 13.552 95.8131 13.445 95.8131ZM49.761 89.9151C49.737 89.9151 49.709 89.9141 49.683 89.9121C49.132 89.8701 48.72 89.3891 48.763 88.8381C48.811 88.2351 48.833 87.6171 48.833 87.0001C48.833 86.4481 49.281 85.9671 49.833 85.9671C50.386 85.9671 50.833 86.3821 50.833 86.9351V87.0001C50.833 87.6691 50.808 88.3391 50.757 88.9921C50.716 89.5171 50.279 89.9151 49.761 89.9151ZM12.166 88.0111C11.614 88.0111 11.166 87.5751 11.166 87.0231V87.0001C11.166 86.3251 11.194 85.6401 11.247 84.9641C11.289 84.4131 11.781 84.0091 12.322 84.0461C12.872 84.0891 13.284 84.5701 13.241 85.1211C13.192 85.7451 13.166 86.3771 13.166 87.0001C13.166 87.5521 12.719 88.0111 12.166 88.0111ZM49.104 82.0471C48.657 82.0471 48.248 81.7451 48.134 81.2911C47.982 80.6801 47.799 80.0681 47.594 79.4721C47.415 78.9491 47.695 78.3801 48.215 78.2011C48.744 78.0201 49.307 78.3001 49.487 78.8221C49.709 79.4711 49.907 80.1381 50.074 80.8031C50.208 81.3391 49.883 81.8821 49.346 82.0161C49.265 82.0381 49.184 82.0471 49.104 82.0471ZM13.431 80.2311C13.325 80.2311 13.216 80.2131 13.111 80.1771C12.587 80.0001 12.307 79.4321 12.485 78.9091C12.706 78.2551 12.958 77.6061 13.233 76.9801C13.456 76.4741 14.041 76.2421 14.549 76.4661C15.055 76.6881 15.286 77.2781 15.065 77.7831C14.813 78.3571 14.582 78.9521 14.378 79.5511C14.237 79.9681 13.848 80.2311 13.431 80.2311ZM45.903 74.8371C45.582 74.8371 45.266 74.6831 45.074 74.3981C44.721 73.8781 44.341 73.3691 43.943 72.8851C43.591 72.4591 43.654 71.8281 44.08 71.4771C44.507 71.1271 45.136 71.1881 45.488 71.6141C45.925 72.1461 46.342 72.7061 46.73 73.2761C47.039 73.7341 46.918 74.3551 46.461 74.6651C46.29 74.7811 46.096 74.8371 45.903 74.8371ZM17.229 73.3171C17.006 73.3171 16.783 73.2441 16.596 73.0921C16.168 72.7421 16.106 72.1131 16.455 71.6851C16.894 71.1471 17.362 70.6271 17.844 70.1411C18.235 69.7481 18.867 69.7471 19.258 70.1351C19.652 70.5241 19.654 71.1571 19.264 71.5491C18.827 71.9901 18.404 72.4621 18.003 72.9501C17.806 73.1921 17.518 73.3171 17.229 73.3171ZM40.311 69.2871C40.123 69.2871 39.934 69.2341 39.765 69.1251C39.242 68.7831 38.697 68.4691 38.145 68.1921C37.653 67.9441 37.455 67.3411 37.704 66.8481C37.952 66.3551 38.551 66.1561 39.046 66.4061C39.663 66.7161 40.273 67.0681 40.859 67.4501C41.322 67.7511 41.453 68.3711 41.151 68.8341C40.957 69.1271 40.637 69.2871 40.311 69.2871ZM23.328 68.3381C22.963 68.3381 22.613 68.1391 22.435 67.7931C22.185 67.3001 22.379 66.6981 22.871 66.4471C23.496 66.1291 24.141 65.8431 24.788 65.6021C25.31 65.4071 25.882 65.6711 26.076 66.1881C26.269 66.7051 26.006 67.2811 25.49 67.4751C24.913 67.6911 24.337 67.9441 23.782 68.2281C23.636 68.3021 23.481 68.3381 23.328 68.3381ZM32.934 66.5881C32.897 66.5881 32.858 66.5861 32.819 66.5811C32.216 66.5111 31.605 66.4761 31 66.4761C30.448 66.4761 29.979 66.0281 29.979 65.4761C29.979 64.9241 30.405 64.4761 30.957 64.4761H31C31.681 64.4761 32.371 64.5161 33.048 64.5951C33.597 64.6581 33.99 65.1551 33.926 65.7031C33.868 66.2131 33.436 66.5881 32.934 66.5881Z" fill="#FFD949"/>
<path d="M38.4538 85.0841C40.0188 83.9781 40.8118 82.3571 40.8118 80.2531C40.8118 78.4681 40.2048 76.9551 39.0078 75.7591C37.8108 74.5631 36.2428 73.9561 34.3488 73.9561H24.2448C23.6398 73.9561 23.2488 74.3481 23.2488 74.9531C23.2488 75.5601 23.6398 75.9511 24.2448 75.9511L26.5598 75.9481L26.5628 90.4571H23.5518C23.0018 90.4571 22.5518 90.9071 22.5518 91.4571C22.5518 92.0071 23.0018 92.4571 23.5518 92.4571H26.5638V96.1511H24.2448C23.6398 96.1511 23.2488 96.5421 23.2488 97.1481C23.2488 97.7521 23.6398 98.1451 24.2448 98.1451H35.6738C37.8148 98.1451 39.5008 97.5261 40.6878 96.3041C41.8698 95.0861 42.4678 93.5091 42.4678 91.6161C42.4678 88.2131 41.1188 86.0221 38.4538 85.0841ZM28.5528 75.9511H34.3498C35.7468 75.9511 36.8188 76.3411 37.6228 77.1451C38.4268 77.9501 38.8178 78.9451 38.8178 80.1871C38.8178 81.4331 38.4188 82.4521 37.5988 83.3021C36.7848 84.1471 35.7758 84.5571 34.5138 84.5571L28.5538 84.5601L28.5518 75.9561C28.5528 75.9561 28.5108 75.9511 28.5528 75.9511ZM39.2128 94.8901C38.3638 95.7391 37.2068 96.1511 35.6738 96.1511L28.5548 96.1551L28.5538 92.4571H32.5528C33.1038 92.4571 33.5528 92.0071 33.5528 91.4571C33.5528 90.9071 33.1038 90.4571 32.5528 90.4571H28.5538L28.5528 86.5581C28.5528 86.5581 28.5098 86.5521 28.5518 86.5521H35.6738C37.2068 86.5521 38.3638 86.9641 39.2128 87.8131C40.0628 88.6621 40.4748 89.8201 40.4748 91.3521C40.4748 92.8831 40.0628 94.0411 39.2128 94.8901Z" fill="#CE9912"/>
<path d="M20.2004 22.4C14.788 22.4 10.4004 17.3856 10.4004 11.2C10.4004 5.0144 14.788 0 20.2004 0C25.6128 0 30.0004 5.0144 30.0004 11.2C30.0004 17.3856 25.6128 22.4 20.2004 22.4Z" fill="#FCC62D"/>
<path d="M10.4 11.2C10.4 5.4792 14.154 0.7632 19 0.0868C18.6064 0.0316 18.2064 0 17.8 0C12.3876 0 8 5.0144 8 11.2C8 17.3856 12.3876 22.4 17.8 22.4C18.2064 22.4 18.6064 22.3684 19 22.3136C14.154 21.6368 10.4 16.9208 10.4 11.2Z" fill="#E4AF18"/>
<path d="M10.3997 11.6003H8.00049C8.00849 11.8695 8.02369 12.1363 8.04809 12.4003H10.4493C10.4245 12.1367 10.4077 11.8699 10.3997 11.6003Z" fill="#CE9912"/>
<path d="M10.491 9.60059H8.09255C8.05935 9.86419 8.03575 10.1314 8.01855 10.4006H10.4182C10.4354 10.1318 10.4586 9.86459 10.491 9.60059Z" fill="#CE9912"/>
<path d="M10.6196 13.6003H8.21924C8.27124 13.8707 8.33124 14.1375 8.39964 14.4003H10.7992C10.7308 14.1379 10.6712 13.8711 10.6196 13.6003Z" fill="#CE9912"/>
<path d="M11.1794 15.6003H8.77783C8.87983 15.8731 8.99223 16.1391 9.11263 16.4003H11.5134C11.393 16.1399 11.2814 15.8731 11.1794 15.6003Z" fill="#CE9912"/>
<path d="M10.9095 7.60034H8.51149C8.43389 7.86314 8.36109 8.12914 8.30029 8.40034H10.7031C10.7635 8.13034 10.8315 7.86274 10.9095 7.60034Z" fill="#CE9912"/>
<path d="M11.7055 5.60083H9.30515C9.17355 5.86123 9.04915 6.12763 8.93555 6.40083H11.3371C11.4507 6.12763 11.5735 5.86083 11.7055 5.60083Z" fill="#CE9912"/>
<path d="M13.3377 3.20093H10.9349C10.7073 3.45533 10.4909 3.72213 10.2861 4.00093H12.6881C12.8929 3.72213 13.1097 3.45533 13.3377 3.20093Z" fill="#CE9912"/>
<path d="M15.7836 1.20044H13.378C12.9696 1.43644 12.5772 1.70364 12.2036 2.00044H14.6072C14.9812 1.70404 15.374 1.43684 15.7836 1.20044Z" fill="#CE9912"/>
<path d="M12.4076 18.0005H10.0068C10.1924 18.2777 10.3884 18.5445 10.596 18.8005H12.9988C12.7908 18.5445 12.594 18.2777 12.4076 18.0005Z" fill="#CE9912"/>
<path d="M11.7339 20.0005C12.0551 20.2897 12.3919 20.5585 12.7435 20.8005H15.1495C14.7955 20.5577 14.4559 20.2909 14.1327 20.0005H11.7339Z" fill="#CE9912"/>
<path d="M20.2342 20.2096H20.2002C19.9202 20.2096 19.6382 20.1928 19.3622 20.16C19.143 20.1336 18.9858 19.9348 19.0126 19.7152C19.0382 19.496 19.2314 19.3432 19.457 19.3656C19.701 19.3948 19.9514 19.4096 20.1998 19.4096C20.421 19.4096 20.6166 19.5888 20.6166 19.8096C20.617 20.0304 20.4554 20.2096 20.2342 20.2096ZM22.5606 19.7788C22.399 19.7788 22.2466 19.68 22.1858 19.5196C22.1078 19.3132 22.2126 19.0824 22.419 19.0044C22.6502 18.9172 22.8802 18.8152 23.1014 18.7016C23.2986 18.6 23.539 18.678 23.6406 18.8744C23.7414 19.0708 23.6642 19.312 23.467 19.4128C23.2186 19.5408 22.961 19.6548 22.701 19.7528C22.655 19.7704 22.6074 19.7788 22.5606 19.7788ZM17.1466 19.4732C17.0854 19.4732 17.0234 19.4592 16.9658 19.4296C16.7186 19.3044 16.475 19.1632 16.2422 19.0104C16.057 18.8896 16.0054 18.6416 16.1266 18.4568C16.2482 18.2724 16.4954 18.2204 16.6806 18.3416C16.889 18.478 17.1066 18.6044 17.3278 18.7164C17.525 18.8164 17.603 19.0572 17.503 19.254C17.433 19.3932 17.2926 19.4732 17.1466 19.4732ZM25.191 18.05C25.089 18.05 24.9874 18.0116 24.9098 17.9348C24.7526 17.7792 24.751 17.526 24.9062 17.3688C25.081 17.1928 25.2494 17.0036 25.4098 16.8076C25.549 16.6364 25.8006 16.6104 25.9718 16.7496C26.1438 16.8892 26.169 17.1412 26.0302 17.3124C25.8542 17.5284 25.6674 17.7368 25.4754 17.9312C25.397 18.0104 25.2938 18.05 25.191 18.05ZM14.703 17.4872C14.587 17.4872 14.4726 17.4372 14.3938 17.3408C14.221 17.1308 14.0546 16.9068 13.8986 16.6752C13.7746 16.4924 13.8226 16.2436 14.0054 16.1196C14.189 15.9964 14.437 16.0444 14.5614 16.2276C14.7038 16.4384 14.8558 16.6428 15.013 16.834C15.1526 17.0048 15.1282 17.2568 14.9566 17.3968C14.8822 17.4576 14.7922 17.4872 14.703 17.4872ZM26.9482 15.4316C26.895 15.4316 26.841 15.4208 26.7886 15.3984C26.5862 15.31 26.4938 15.0744 26.5818 14.8716C26.6822 14.6412 26.7734 14.4028 26.8546 14.164C26.9254 13.9548 27.1522 13.8424 27.3618 13.9124C27.5706 13.9832 27.6834 14.21 27.613 14.4192C27.5246 14.68 27.4246 14.9396 27.3158 15.1912C27.2494 15.3416 27.1026 15.4316 26.9482 15.4316ZM13.1782 14.7252C13.0118 14.7252 12.8558 14.6204 12.7994 14.454C12.711 14.1948 12.6322 13.9276 12.5654 13.6612C12.5126 13.4468 12.643 13.23 12.857 13.1768C13.071 13.1224 13.2882 13.2536 13.3422 13.468C13.4026 13.7124 13.475 13.9576 13.5562 14.196C13.6282 14.4044 13.5158 14.6324 13.307 14.7036C13.2646 14.718 13.221 14.7252 13.1782 14.7252ZM27.7046 12.366C27.695 12.366 27.6838 12.3656 27.6734 12.3648C27.453 12.348 27.2882 12.1556 27.3054 11.9352C27.3246 11.694 27.3334 11.4468 27.3334 11.2C27.3334 10.9792 27.5126 10.7868 27.7334 10.7868C27.9546 10.7868 28.1334 10.9528 28.1334 11.174V11.2C28.1334 11.4676 28.1234 11.7356 28.103 11.9968C28.0866 12.2068 27.9118 12.366 27.7046 12.366ZM12.6666 11.6044C12.4458 11.6044 12.2666 11.43 12.2666 11.2092V11.2C12.2666 10.93 12.2778 10.656 12.299 10.3856C12.3158 10.1652 12.5126 10.0036 12.729 10.0184C12.949 10.0356 13.1138 10.228 13.0966 10.4484C13.077 10.698 13.0666 10.9508 13.0666 11.2C13.0666 11.4208 12.8878 11.6044 12.6666 11.6044ZM27.4418 9.21883C27.263 9.21883 27.0994 9.09803 27.0538 8.91643C26.993 8.67203 26.9198 8.42723 26.8378 8.18883C26.7662 7.97963 26.8782 7.75203 27.0862 7.68043C27.2978 7.60803 27.523 7.72003 27.595 7.92883C27.6838 8.18843 27.763 8.45523 27.8298 8.72123C27.8834 8.93563 27.7534 9.15283 27.5386 9.20643C27.5062 9.21523 27.4738 9.21883 27.4418 9.21883ZM13.1726 8.49243C13.1302 8.49243 13.0866 8.48523 13.0446 8.47083C12.835 8.40003 12.723 8.17283 12.7942 7.96363C12.8826 7.70203 12.9834 7.44243 13.0934 7.19203C13.1826 6.98963 13.4166 6.89683 13.6198 6.98643C13.8222 7.07523 13.9146 7.31123 13.8262 7.51323C13.7254 7.74283 13.633 7.98083 13.5514 8.22043C13.495 8.38723 13.3394 8.49243 13.1726 8.49243ZM26.1614 6.33483C26.033 6.33483 25.9066 6.27323 25.8298 6.15923C25.6886 5.95123 25.5366 5.74763 25.3774 5.55403C25.2366 5.38363 25.2618 5.13123 25.4322 4.99083C25.603 4.85083 25.8546 4.87523 25.9954 5.04563C26.1702 5.25843 26.337 5.48243 26.4922 5.71043C26.6158 5.89363 26.5674 6.14203 26.3846 6.26603C26.3162 6.31243 26.2386 6.33483 26.1614 6.33483ZM14.6918 5.72683C14.6026 5.72683 14.5134 5.69763 14.4386 5.63683C14.2674 5.49683 14.2426 5.24523 14.3822 5.07403C14.5578 4.85883 14.745 4.65083 14.9378 4.45643C15.0942 4.29923 15.347 4.29883 15.5034 4.45403C15.661 4.60963 15.6618 4.86283 15.5058 5.01963C15.331 5.19603 15.1618 5.38483 15.0014 5.58003C14.9226 5.67683 14.8074 5.72683 14.6918 5.72683ZM23.9246 4.11483C23.8494 4.11483 23.7738 4.09363 23.7062 4.05003C23.497 3.91323 23.279 3.78763 23.0582 3.67683C22.8614 3.57763 22.7822 3.33643 22.8818 3.13923C22.981 2.94203 23.2206 2.86243 23.4186 2.96243C23.6654 3.08643 23.9094 3.22723 24.1438 3.38003C24.329 3.50043 24.3814 3.74843 24.2606 3.93363C24.183 4.05083 24.055 4.11483 23.9246 4.11483ZM17.1314 3.73523C16.9854 3.73523 16.8454 3.65563 16.7742 3.51723C16.6742 3.32003 16.7518 3.07923 16.9486 2.97883C17.1986 2.85163 17.4566 2.73723 17.7154 2.64083C17.9242 2.56283 18.153 2.66843 18.2306 2.87523C18.3078 3.08203 18.2026 3.31243 17.9962 3.39003C17.7654 3.47643 17.535 3.57763 17.313 3.69123C17.2546 3.72083 17.1926 3.73523 17.1314 3.73523ZM20.9738 3.03523C20.959 3.03523 20.9434 3.03443 20.9278 3.03243C20.6866 3.00443 20.4422 2.99043 20.2002 2.99043C19.9794 2.99043 19.7918 2.81123 19.7918 2.59043C19.7918 2.36963 19.9622 2.19043 20.183 2.19043H20.2002C20.4726 2.19043 20.7486 2.20643 21.0194 2.23803C21.239 2.26323 21.3962 2.46203 21.3706 2.68123C21.3474 2.88523 21.1746 3.03523 20.9738 3.03523Z" fill="#FFD949"/>
<path d="M23.1816 10.4336C23.8076 9.99122 24.1248 9.34282 24.1248 8.50122C24.1248 7.78722 23.882 7.18202 23.4032 6.70362C22.9244 6.22522 22.2972 5.98242 21.5396 5.98242H17.498C17.256 5.98242 17.0996 6.13922 17.0996 6.38122C17.0996 6.62402 17.256 6.78042 17.498 6.78042L18.424 6.77922L18.4252 12.5828H17.2208C17.0008 12.5828 16.8208 12.7628 16.8208 12.9828C16.8208 13.2028 17.0008 13.3828 17.2208 13.3828H18.4256V14.8604H17.498C17.256 14.8604 17.0996 15.0168 17.0996 15.2592C17.0996 15.5008 17.256 15.658 17.498 15.658H22.0696C22.926 15.658 23.6004 15.4104 24.0752 14.9216C24.548 14.4344 24.7872 13.8036 24.7872 13.0464C24.7872 11.6852 24.2476 10.8088 23.1816 10.4336ZM19.2212 6.78042H21.54C22.0988 6.78042 22.5276 6.93642 22.8492 7.25802C23.1708 7.58002 23.3272 7.97802 23.3272 8.47482C23.3272 8.97322 23.1676 9.38082 22.8396 9.72082C22.514 10.0588 22.1104 10.2228 21.6056 10.2228L19.2216 10.224L19.2208 6.78242C19.2212 6.78242 19.2044 6.78042 19.2212 6.78042ZM23.4852 14.356C23.1456 14.6956 22.6828 14.8604 22.0696 14.8604L19.222 14.862L19.2216 13.3828H20.8212C21.0416 13.3828 21.2212 13.2028 21.2212 12.9828C21.2212 12.7628 21.0416 12.5828 20.8212 12.5828H19.2216L19.2212 11.0232C19.2212 11.0232 19.204 11.0208 19.2208 11.0208H22.0696C22.6828 11.0208 23.1456 11.1856 23.4852 11.5252C23.8252 11.8648 23.99 12.328 23.99 12.9408C23.99 13.5532 23.8252 14.0164 23.4852 14.356Z" fill="#CE9912"/>
<path d="M58.9468 52C52.4229 52 47.1343 45.9559 47.1343 38.5C47.1343 31.0441 52.4229 25 58.9468 25C65.4707 25 70.7593 31.0441 70.7593 38.5C70.7593 45.9559 65.4707 52 58.9468 52Z" fill="#FCC62D"/>
<path d="M47.1341 38.5C47.1341 31.6044 51.659 25.9199 57.5001 25.1046C57.0257 25.0381 56.5436 25 56.0537 25C49.5298 25 44.2412 31.0441 44.2412 38.5C44.2412 45.9559 49.5298 52 56.0537 52C56.5436 52 57.0257 51.9619 57.5001 51.8959C51.659 51.0801 47.1341 45.3956 47.1341 38.5Z" fill="#E4AF18"/>
<path d="M47.1336 38.9827H44.2417C44.2513 39.3071 44.2697 39.6287 44.2991 39.947H47.1934C47.1635 39.6292 47.1432 39.3076 47.1336 38.9827Z" fill="#CE9912"/>
<path d="M47.2438 36.572H44.3529C44.3129 36.8898 44.2844 37.2118 44.2637 37.5363H47.156C47.1768 37.2123 47.2047 36.8902 47.2438 36.572Z" fill="#CE9912"/>
<path d="M47.3987 41.3933H44.5054C44.568 41.7192 44.6404 42.0408 44.7228 42.3576H47.6152C47.5327 42.0413 47.4609 41.7197 47.3987 41.3933Z" fill="#CE9912"/>
<path d="M48.0735 43.804H45.1787C45.3017 44.1328 45.4371 44.4534 45.5823 44.7682H48.4761C48.331 44.4544 48.1964 44.1328 48.0735 43.804Z" fill="#CE9912"/>
<path d="M47.748 34.1611H44.8576C44.7641 34.4779 44.6763 34.7985 44.603 35.1254H47.4993C47.5721 34.8 47.654 34.4774 47.748 34.1611Z" fill="#CE9912"/>
<path d="M48.708 31.751H45.8146C45.656 32.0649 45.5061 32.386 45.3691 32.7153H48.2639C48.4009 32.386 48.5489 32.0644 48.708 31.751Z" fill="#CE9912"/>
<path d="M50.6753 28.8582H47.7791C47.5048 29.1648 47.2439 29.4864 46.9971 29.8224H49.8923C50.1392 29.4864 50.4005 29.1648 50.6753 28.8582Z" fill="#CE9912"/>
<path d="M53.6233 26.447H50.7237C50.2314 26.7315 49.7584 27.0536 49.3081 27.4113H52.2053C52.6561 27.054 53.1296 26.732 53.6233 26.447Z" fill="#CE9912"/>
<path d="M49.554 46.697H46.6602C46.8839 47.0311 47.1201 47.3527 47.3704 47.6613H50.2666C50.0159 47.3527 49.7787 47.0311 49.554 46.697Z" fill="#CE9912"/>
<path d="M48.7417 49.1077C49.1289 49.4563 49.5348 49.7803 49.9586 50.072H52.8587C52.432 49.7793 52.0227 49.4577 51.6331 49.1077H48.7417Z" fill="#CE9912"/>
<path d="M58.9876 49.3597H58.9466C58.6091 49.3597 58.2692 49.3395 57.9365 49.2999C57.6723 49.2681 57.4828 49.0285 57.5151 48.7638C57.546 48.4996 57.7789 48.3154 58.0508 48.3424C58.3449 48.3776 58.6467 48.3954 58.9461 48.3954C59.2128 48.3954 59.4485 48.6114 59.4485 48.8776C59.449 49.1437 59.2542 49.3597 58.9876 49.3597ZM61.7917 48.8404C61.5969 48.8404 61.4133 48.7213 61.34 48.528C61.2459 48.2792 61.3723 48.001 61.6211 47.907C61.8997 47.8019 62.177 47.679 62.4436 47.542C62.6813 47.4196 62.9711 47.5136 63.0935 47.7503C63.215 47.987 63.122 48.2778 62.8843 48.3993C62.5849 48.5536 62.2744 48.691 61.961 48.8091C61.9055 48.8303 61.8481 48.8404 61.7917 48.8404ZM55.2659 48.4721C55.1922 48.4721 55.1174 48.4552 55.048 48.4195C54.75 48.2686 54.4564 48.0984 54.1758 47.9142C53.9526 47.7686 53.8904 47.4697 54.0365 47.247C54.183 47.0247 54.481 46.962 54.7042 47.1081C54.9554 47.2725 55.2177 47.4249 55.4843 47.5599C55.722 47.6804 55.8161 47.9707 55.6955 48.2079C55.6111 48.3757 55.4419 48.4721 55.2659 48.4721ZM64.9623 46.7566C64.8394 46.7566 64.7169 46.7103 64.6234 46.6178C64.4339 46.4302 64.4319 46.125 64.619 45.9355C64.8297 45.7234 65.0327 45.4953 65.226 45.2591C65.3938 45.0527 65.6971 45.0214 65.9035 45.1892C66.1108 45.3574 66.1411 45.6612 65.9738 45.8675C65.7617 46.1279 65.5365 46.3791 65.3051 46.6134C65.2106 46.7089 65.0862 46.7566 64.9623 46.7566ZM52.3205 46.0782C52.1807 46.0782 52.0428 46.018 51.9478 45.9018C51.7395 45.6487 51.539 45.3787 51.3509 45.0995C51.2015 44.8792 51.2593 44.5793 51.4797 44.4298C51.701 44.2813 51.9999 44.3392 52.1498 44.56C52.3215 44.8141 52.5047 45.0604 52.6942 45.2909C52.8624 45.4968 52.833 45.8005 52.6262 45.9693C52.5365 46.0426 52.428 46.0782 52.3205 46.0782ZM67.0804 43.6005C67.0162 43.6005 66.9511 43.5875 66.888 43.5605C66.644 43.4539 66.5326 43.17 66.6387 42.9255C66.7597 42.6478 66.8697 42.3604 66.9675 42.0726C67.0529 41.8204 67.3263 41.685 67.5789 41.7693C67.8306 41.8547 67.9665 42.128 67.8817 42.3802C67.7751 42.6946 67.6546 43.0075 67.5234 43.3107C67.4434 43.492 67.2665 43.6005 67.0804 43.6005ZM50.4826 42.749C50.282 42.749 50.094 42.6227 50.026 42.4222C49.9194 42.1097 49.8245 41.7877 49.7439 41.4665C49.6803 41.2081 49.8375 40.9468 50.0954 40.8827C50.3534 40.8171 50.6152 40.9752 50.6803 41.2337C50.7531 41.5283 50.8403 41.8238 50.9382 42.1112C51.025 42.3624 50.8895 42.6372 50.6378 42.723C50.5867 42.7404 50.5342 42.749 50.4826 42.749ZM67.9921 39.9054C67.9805 39.9054 67.967 39.9049 67.9545 39.9039C67.6888 39.8837 67.4902 39.6518 67.5109 39.3861C67.5341 39.0954 67.5447 38.7974 67.5447 38.4999C67.5447 38.2338 67.7607 38.0019 68.0268 38.0019C68.2934 38.0019 68.5089 38.202 68.5089 38.4686V38.4999C68.5089 38.8225 68.4969 39.1455 68.4723 39.4604C68.4525 39.7135 68.2418 39.9054 67.9921 39.9054ZM49.8659 38.9874C49.5998 38.9874 49.3838 38.7772 49.3838 38.511V38.4999C49.3838 38.1745 49.3973 37.8442 49.4228 37.5183C49.4431 37.2526 49.6803 37.0578 49.9411 37.0757C50.2063 37.0964 50.405 37.3283 50.3842 37.594C50.3606 37.8948 50.3481 38.1995 50.3481 38.4999C50.3481 38.7661 50.1326 38.9874 49.8659 38.9874ZM67.6753 36.1119C67.4598 36.1119 67.2626 35.9663 67.2076 35.7474C67.1344 35.4528 67.0461 35.1577 66.9473 34.8704C66.861 34.6182 66.996 34.3439 67.2467 34.2575C67.5018 34.1703 67.7732 34.3053 67.86 34.557C67.967 34.8699 68.0625 35.1915 68.143 35.5121C68.2076 35.7705 68.0509 36.0323 67.792 36.0969C67.7529 36.1075 67.7139 36.1119 67.6753 36.1119ZM50.4758 35.2363C50.4247 35.2363 50.3722 35.2276 50.3216 35.2103C50.0689 35.1249 49.9339 34.8511 50.0197 34.5989C50.1263 34.2836 50.2478 33.9707 50.3804 33.6689C50.4879 33.4249 50.7699 33.313 51.0149 33.421C51.2588 33.5281 51.3702 33.8125 51.2637 34.056C51.1422 34.3328 51.0308 34.6196 50.9324 34.9084C50.8644 35.1095 50.6769 35.2363 50.4758 35.2363ZM66.132 32.6356C65.9772 32.6356 65.8249 32.5614 65.7323 32.424C65.5621 32.1732 65.3789 31.9278 65.187 31.6945C65.0173 31.4891 65.0476 31.1849 65.253 31.0156C65.4589 30.8469 65.7622 30.8763 65.9319 31.0817C66.1426 31.3382 66.3436 31.6082 66.5307 31.883C66.6797 32.1038 66.6214 32.4032 66.401 32.5527C66.3186 32.6086 66.225 32.6356 66.132 32.6356ZM52.307 31.9028C52.1995 31.9028 52.092 31.8676 52.0018 31.7943C51.7955 31.6255 51.7656 31.3223 51.9338 31.1159C52.1455 30.8565 52.3711 30.6058 52.6035 30.3715C52.7921 30.182 53.0968 30.1815 53.2853 30.3686C53.4753 30.5561 53.4762 30.8613 53.2882 31.0503C53.0775 31.263 52.8735 31.4905 52.6802 31.7258C52.5852 31.8425 52.4464 31.9028 52.307 31.9028ZM63.4358 29.9597C63.3452 29.9597 63.2541 29.9342 63.1726 29.8816C62.9204 29.7167 62.6577 29.5653 62.3915 29.4318C62.1543 29.3122 62.0588 29.0215 62.1789 28.7838C62.2985 28.5461 62.5873 28.4501 62.8259 28.5707C63.1234 28.7201 63.4175 28.8899 63.7001 29.074C63.9233 29.2192 63.9864 29.5181 63.8408 29.7413C63.7473 29.8826 63.593 29.9597 63.4358 29.9597ZM55.2476 29.5022C55.0716 29.5022 54.9029 29.4062 54.8171 29.2394C54.6965 29.0017 54.7901 28.7115 55.0273 28.5904C55.3286 28.4371 55.6396 28.2992 55.9515 28.183C56.2032 28.089 56.479 28.2163 56.5725 28.4656C56.6656 28.7148 56.5388 28.9925 56.29 29.0861C56.0118 29.1902 55.7341 29.3122 55.4665 29.4491C55.3961 29.4848 55.3214 29.5022 55.2476 29.5022ZM59.8791 28.6584C59.8612 28.6584 59.8424 28.6575 59.8236 28.655C59.5329 28.6213 59.2383 28.6044 58.9466 28.6044C58.6805 28.6044 58.4543 28.3884 58.4543 28.1223C58.4543 27.8561 58.6597 27.6401 58.9259 27.6401H58.9466C59.2749 27.6401 59.6076 27.6594 59.934 27.6975C60.1987 27.7279 60.3882 27.9675 60.3574 28.2317C60.3294 28.4776 60.1211 28.6584 59.8791 28.6584Z" fill="#FFD949"/>
<path d="M62.5406 37.5762C63.2951 37.043 63.6775 36.2614 63.6775 35.247C63.6775 34.3864 63.3848 33.6569 62.8077 33.0802C62.2306 32.5036 61.4746 32.2109 60.5614 32.2109H55.6898C55.3981 32.2109 55.2096 32.3999 55.2096 32.6916C55.2096 32.9843 55.3981 33.1728 55.6898 33.1728L56.806 33.1714L56.8074 40.1668H55.3557C55.0905 40.1668 54.8735 40.3837 54.8735 40.6489C54.8735 40.9141 55.0905 41.1311 55.3557 41.1311H56.8079V42.9121H55.6898C55.3981 42.9121 55.2096 43.1006 55.2096 43.3928C55.2096 43.684 55.3981 43.8735 55.6898 43.8735H61.2002C62.2325 43.8735 63.0454 43.575 63.6177 42.9859C64.1876 42.3986 64.4759 41.6383 64.4759 40.7256C64.4759 39.0848 63.8255 38.0285 62.5406 37.5762ZM57.7669 33.1728H60.5619C61.2354 33.1728 61.7523 33.3608 62.1399 33.7485C62.5276 34.1366 62.7161 34.6163 62.7161 35.2152C62.7161 35.8159 62.5237 36.3072 62.1283 36.717C61.7359 37.1245 61.2494 37.3221 60.6409 37.3221L57.7674 37.3236L57.7664 33.1752C57.7669 33.1752 57.7466 33.1728 57.7669 33.1728ZM62.9065 42.3041C62.4972 42.7135 61.9393 42.9121 61.2002 42.9121L57.7678 42.914L57.7674 41.1311H59.6954C59.9611 41.1311 60.1776 40.9141 60.1776 40.6489C60.1776 40.3837 59.9611 40.1668 59.6954 40.1668H57.7674L57.7669 38.2869C57.7669 38.2869 57.7461 38.284 57.7664 38.284H61.2002C61.9393 38.284 62.4972 38.4827 62.9065 38.892C63.3163 39.3013 63.515 39.8597 63.515 40.5983C63.515 41.3365 63.3163 41.8948 62.9065 42.3041Z" fill="#CE9912"/>
</svg>
